<?xml version="1.0" encoding="utf-8"?>
<!-- Generator: Adobe Illustrator 15.0.2, SVG Export Plug-In . SVG Version: 6.00 Build 0)  -->
<!DOCTYPE svg PUBLIC "-//W3C//DTD SVG 1.1//EN" "http://www.w3.org/Graphics/SVG/1.1/DTD/svg11.dtd">
<svg version="1.1" id="Calque_1" xmlns="http://www.w3.org/2000/svg" xmlns:xlink="http://www.w3.org/1999/xlink" x="0px" y="0px"
	 width="34px" height="34px" viewBox="0 0 34 34" enable-background="new 0 0 34 34" xml:space="preserve">
<rect fill="#F01B57" width="34" height="34"/>
<linearGradient id="SVGID_1_" gradientUnits="userSpaceOnUse" x1="1095.3994" y1="1614.7568" x2="1095.3994" y2="1646.8252" gradientTransform="matrix(1 0 0 1 -1078.3984 -1613.8398)">
	<stop  offset="0" style="stop-color:#D31147"/>
	<stop  offset="1" style="stop-color:#F01B57"/>
</linearGradient>
<rect x="1" y="1" fill="url(#SVGID_1_)" width="32" height="32"/>
<rect x="1" y="1" opacity="0.45" fill="#FFFFFE" enable-background="new    " width="32" height="1"/>
<path opacity="0.6" fill="#2D2D2D" enable-background="new    " d="M16.99,9c-4.509,0-4.292,5.569-4.292,5.569
	s-0.626-0.082-0.626,0.842c0,0.924,0.653,0.924,0.653,0.924c0,0.951,1.82,2.526,1.82,2.526v0.543C10.661,19.402,9.6,25,9.6,25
	h14.798c0,0-1.063-5.598-4.944-5.598v-0.543c0,0,1.819-1.574,1.819-2.525c0,0,0.65,0,0.65-0.924c0-0.923-0.625-0.842-0.625-0.842
	S21.52,9,17.011,9H16.99z"/>
</svg>
