<?xml version="1.0" encoding="utf-8"?>
<!-- Generator: Adobe Illustrator 15.0.2, SVG Export Plug-In . SVG Version: 6.00 Build 0)  -->
<!DOCTYPE svg PUBLIC "-//W3C//DTD SVG 1.1//EN" "http://www.w3.org/Graphics/SVG/1.1/DTD/svg11.dtd">
<svg version="1.1" id="Calque_1" xmlns="http://www.w3.org/2000/svg" xmlns:xlink="http://www.w3.org/1999/xlink" x="0px" y="0px"
	 width="34px" height="34px" viewBox="0 0 34 34" enable-background="new 0 0 34 34" xml:space="preserve">
<rect fill="#F01B57" width="34" height="34"/>
<linearGradient id="SVGID_1_" gradientUnits="userSpaceOnUse" x1="825.7988" y1="-1165.7969" x2="825.7988" y2="-1197.8652" gradientTransform="matrix(1 0 0 -1 -808.7988 -1164.8799)">
	<stop  offset="0" style="stop-color:#D31147"/>
	<stop  offset="1" style="stop-color:#F01B57"/>
</linearGradient>
<rect x="1" y="1" fill="url(#SVGID_1_)" width="32" height="32"/>
<rect x="1" y="1" opacity="0.45" fill="#FFFFFE" enable-background="new    " width="32" height="1"/>
<rect x="1" y="1" opacity="0.22" fill="#FFFFFE" enable-background="new    " width="32" height="32"/>
<g opacity="0.6">
	<path fill="#0A7039" d="M26.126,16.988L17.51,9.133c-0.13-0.119-0.314-0.147-0.509-0.125c-0.196-0.022-0.379,0.006-0.511,0.125
		l-8.615,7.855c-0.311,0.284-0.227,0.881,0.188,1.335s1.002,0.595,1.312,0.31L17,11.682l7.625,6.952
		c0.311,0.284,0.898,0.146,1.313-0.308C26.354,17.869,26.438,17.272,26.126,16.988z"/>
	<path fill="#0A7039" d="M17.307,12.843c-0.15-0.132-0.398-0.134-0.549-0.002l-5.74,4.991c-0.151,0.132-0.275,0.404-0.275,0.605
		v6.194c0,0.203,0.164,0.368,0.365,0.368h3.683c0.2,0,0.365-0.165,0.365-0.368v-4.772c0-0.205,0.164-0.368,0.365-0.368h2.954
		c0.203,0,0.367,0.163,0.367,0.368v4.772c0,0.203,0.164,0.368,0.365,0.368h3.646c0.201,0,0.364-0.165,0.364-0.368v-6.194
		c0-0.205-0.12-0.475-0.274-0.606L17.307,12.843z"/>
	<path fill="#0A7039" d="M22.943,13.377c0.147,0.135,0.271,0.082,0.271-0.119v-2.881c0-0.2-0.164-0.365-0.364-0.365h-2.15
		c-0.203,0-0.368,0.164-0.368,0.365v0.255c0,0.201,0.12,0.475,0.272,0.61L22.943,13.377z"/>
</g>
</svg>
