<?xml version="1.0" encoding="utf-8"?>
<!-- Generator: Adobe Illustrator 15.0.2, SVG Export Plug-In . SVG Version: 6.00 Build 0)  -->
<!DOCTYPE svg PUBLIC "-//W3C//DTD SVG 1.1//EN" "http://www.w3.org/Graphics/SVG/1.1/DTD/svg11.dtd">
<svg version="1.1" id="Calque_1" xmlns="http://www.w3.org/2000/svg" xmlns:xlink="http://www.w3.org/1999/xlink" x="0px" y="0px"
	 width="104px" height="104px" viewBox="0 36 104 104" enable-background="new 0 36 104 104" xml:space="preserve">
<g>
	<g>
		
			<linearGradient id="SVGID_1_" gradientUnits="userSpaceOnUse" x1="548.3848" y1="-218.7603" x2="449.4424" y2="-317.7026" gradientTransform="matrix(1 0 0 -1 -408.96 -146.5996)">
			<stop  offset="0" style="stop-color:#F2F2F2"/>
			<stop  offset="1" style="stop-color:#C9D9DE"/>
		</linearGradient>
		<path fill="url(#SVGID_1_)" d="M103.337,127.739c-0.443-1.173-1.088-2.115-1.938-2.831L80.08,104.644
			c-1.501,2.279-3.21,4.39-5.139,6.318c-2.246,2.245-4.731,4.199-7.453,5.866l21.828,20.775c0.714,0.782,1.615,1.377,2.703,1.785
			c1.088,0.407,2.191,0.611,3.313,0.611c1.155,0,2.27-0.23,3.339-0.688c1.071-0.459,2.031-1.131,2.881-2.014
			c0.816-0.851,1.429-1.803,1.836-2.855c0.408-1.054,0.611-2.124,0.611-3.213C104,130.076,103.778,128.911,103.337,127.739z"/>
		
			<linearGradient id="SVGID_2_" gradientUnits="userSpaceOnUse" x1="511.7354" y1="-182.7861" x2="413.2441" y2="-281.2774" gradientTransform="matrix(1 0 0 -1 -408.96 -146.5996)">
			<stop  offset="0" style="stop-color:#F2F2F2"/>
			<stop  offset="1" style="stop-color:#C9D9DE"/>
		</linearGradient>
		<path fill="url(#SVGID_2_)" d="M29.332,110.413c-0.323-0.199-0.64-0.404-0.954-0.612C28.691,110.01,29.011,110.214,29.332,110.413
			z"/>
		
			<linearGradient id="SVGID_3_" gradientUnits="userSpaceOnUse" x1="514.2676" y1="-184.6836" x2="415.3537" y2="-283.5976" gradientTransform="matrix(1 0 0 -1 -408.96 -146.5996)">
			<stop  offset="0" style="stop-color:#F2F2F2"/>
			<stop  offset="1" style="stop-color:#C9D9DE"/>
		</linearGradient>
		<path fill="url(#SVGID_3_)" d="M29.493,110.512c0.151,0.093,0.301,0.187,0.453,0.275c1.297,0.762,2.644,1.429,4.038,2.007
			c-0.102-0.043-0.201-0.083-0.302-0.127C32.217,112.033,30.82,111.313,29.493,110.512z"/>
		
			<linearGradient id="SVGID_4_" gradientUnits="userSpaceOnUse" x1="518.1025" y1="-189.335" x2="419.7513" y2="-287.6863" gradientTransform="matrix(1 0 0 -1 -408.96 -146.5996)">
			<stop  offset="0" style="stop-color:#F2F2F2"/>
			<stop  offset="1" style="stop-color:#C9D9DE"/>
		</linearGradient>
		<path fill="url(#SVGID_4_)" d="M37.747,114.101c0.021,0.008,0.046,0.014,0.069,0.019c-0.031-0.008-0.062-0.016-0.091-0.024
			C37.732,114.097,37.74,114.099,37.747,114.101z"/>
		
			<linearGradient id="SVGID_5_" gradientUnits="userSpaceOnUse" x1="517.2588" y1="-187.6001" x2="418.295" y2="-286.5639" gradientTransform="matrix(1 0 0 -1 -408.96 -146.5996)">
			<stop  offset="0" style="stop-color:#F2F2F2"/>
			<stop  offset="1" style="stop-color:#C9D9DE"/>
		</linearGradient>
		<path fill="url(#SVGID_5_)" d="M37.726,114.095c-1.284-0.362-2.53-0.799-3.741-1.301
			C35.206,113.308,36.453,113.741,37.726,114.095z"/>
		
			<linearGradient id="SVGID_6_" gradientUnits="userSpaceOnUse" x1="518.8535" y1="-189.0635" x2="419.7979" y2="-288.1191" gradientTransform="matrix(1 0 0 -1 -408.96 -146.5996)">
			<stop  offset="0" style="stop-color:#F2F2F2"/>
			<stop  offset="1" style="stop-color:#C9D9DE"/>
		</linearGradient>
		<path fill="url(#SVGID_6_)" d="M38.485,114.295c-0.224-0.058-0.447-0.113-0.669-0.176
			C38.038,114.18,38.262,114.238,38.485,114.295z"/>
		
			<linearGradient id="SVGID_7_" gradientUnits="userSpaceOnUse" x1="513.2383" y1="-182.1958" x2="413.3502" y2="-282.0839" gradientTransform="matrix(1 0 0 -1 -408.96 -146.5996)">
			<stop  offset="0" style="stop-color:#F2F2F2"/>
			<stop  offset="1" style="stop-color:#C9D9DE"/>
		</linearGradient>
		<path fill="url(#SVGID_7_)" d="M29.493,110.512c-0.053-0.034-0.108-0.065-0.161-0.099
			C29.386,110.445,29.44,110.478,29.493,110.512z"/>
		
			<linearGradient id="SVGID_8_" gradientUnits="userSpaceOnUse" x1="497.7461" y1="-168.1304" x2="398.8104" y2="-267.0661" gradientTransform="matrix(1 0 0 -1 -408.96 -146.5996)">
			<stop  offset="0" style="stop-color:#F2F2F2"/>
			<stop  offset="1" style="stop-color:#C9D9DE"/>
		</linearGradient>
		<path fill="url(#SVGID_8_)" d="M46.439,49.574c-4.52,0-8.771,0.862-12.757,2.588s-7.46,4.069-10.425,7.034
			c-2.964,2.965-5.308,6.452-7.034,10.461c-1.726,4.01-2.588,8.273-2.588,12.793c0,4.521,0.862,8.773,2.588,12.759
			c1.726,3.984,4.07,7.46,7.034,10.423c1.563,1.563,3.273,2.95,5.121,4.169c-1.821-1.214-3.509-2.599-5.06-4.164
			c-1.989-2.005-3.696-4.224-5.124-6.652c-1.427-2.431-2.532-5.039-3.313-7.826c-0.781-2.788-1.173-5.693-1.173-8.719
			c0-3.024,0.392-5.931,1.173-8.718s1.887-5.396,3.313-7.826c1.428-2.43,3.136-4.64,5.124-6.628s4.197-3.696,6.628-5.123
			c2.43-1.428,5.038-2.532,7.825-3.314c2.787-0.781,5.677-1.172,8.667-1.172c4.555,0,8.829,0.858,12.822,2.575
			c2.804,1.205,5.351,2.726,7.651,4.551c-2.315-1.852-4.885-3.396-7.717-4.622C55.212,50.437,50.96,49.574,46.439,49.574z"/>
		
			<linearGradient id="SVGID_9_" gradientUnits="userSpaceOnUse" x1="507.0469" y1="-177.4326" x2="408.1124" y2="-276.3671" gradientTransform="matrix(1 0 0 -1 -408.96 -146.5996)">
			<stop  offset="0" style="stop-color:#F2F2F2"/>
			<stop  offset="1" style="stop-color:#C9D9DE"/>
		</linearGradient>
		<path fill="url(#SVGID_9_)" d="M46.439,49.658c-2.99,0-5.88,0.391-8.667,1.172c-2.787,0.782-5.396,1.888-7.825,3.314
			c-2.431,1.427-4.64,3.136-6.628,5.123c-1.989,1.988-3.696,4.197-5.124,6.628c-1.427,2.43-2.532,5.039-3.313,7.826
			c-0.781,2.786-1.173,5.693-1.173,8.718c0,3.025,0.392,5.931,1.173,8.719c0.781,2.787,1.887,5.396,3.313,7.826
			c1.428,2.43,3.136,4.647,5.124,6.652c1.551,1.563,3.238,2.95,5.06,4.164c0.314,0.207,0.631,0.413,0.954,0.611
			c0.053,0.033,0.107,0.065,0.161,0.1c1.327,0.801,2.724,1.521,4.189,2.155c0.1,0.044,0.201,0.083,0.302,0.127
			c1.21,0.501,2.456,0.937,3.741,1.301c0.029,0.008,0.06,0.015,0.09,0.023c0.223,0.063,0.445,0.119,0.669,0.176
			c2.553,0.639,5.203,0.96,7.954,0.96c4.521,0,8.772-0.863,12.757-2.587c3.985-1.725,7.461-4.071,10.425-7.035
			c2.965-2.964,5.31-6.438,7.035-10.424c1.726-3.984,2.588-8.238,2.588-12.758s-0.862-8.784-2.588-12.794
			c-1.725-4.009-4.07-7.496-7.035-10.46c-0.857-0.858-1.765-1.658-2.708-2.413c-2.301-1.824-4.847-3.346-7.651-4.551
			C55.268,50.517,50.994,49.658,46.439,49.658z M67.572,73.493c1.207,2.804,1.811,5.786,1.811,8.947c0,3.16-0.604,6.135-1.811,8.922
			c-1.206,2.787-2.847,5.217-4.92,7.29s-4.503,3.714-7.29,4.92c-2.786,1.207-5.762,1.811-8.923,1.811s-6.135-0.604-8.922-1.811
			c-2.787-1.206-5.218-2.847-7.291-4.92s-3.713-4.504-4.919-7.29c-1.206-2.787-1.811-5.762-1.811-8.922
			c0-3.161,0.604-6.144,1.811-8.947c1.206-2.805,2.846-5.243,4.919-7.316s4.504-3.714,7.291-4.92c2.786-1.207,5.761-1.81,8.922-1.81
			s6.135,0.603,8.923,1.81c2.787,1.206,5.217,2.847,7.29,4.92S66.366,70.688,67.572,73.493z"/>
	</g>
	<g>
		<g>
			
				<linearGradient id="SVGID_10_" gradientUnits="userSpaceOnUse" x1="484.1475" y1="-154.5317" x2="385.2112" y2="-253.468" gradientTransform="matrix(1 0 0 -1 -408.96 -146.5996)">
				<stop  offset="0" style="stop-color:#F2F2F2"/>
				<stop  offset="1" style="stop-color:#C9D9DE"/>
			</linearGradient>
			<path fill="url(#SVGID_10_)" d="M53.559,43.504v-7.503H33.176v9.157c4.194-1.517,8.644-2.286,13.264-2.286
				C48.862,42.872,51.24,43.084,53.559,43.504z"/>
			
				<linearGradient id="SVGID_11_" gradientUnits="userSpaceOnUse" x1="501.4043" y1="-171.7822" x2="402.4645" y2="-270.722" gradientTransform="matrix(1 0 0 -1 -408.96 -146.5996)">
				<stop  offset="0" style="stop-color:#F2F2F2"/>
				<stop  offset="1" style="stop-color:#C9D9DE"/>
			</linearGradient>
			<path fill="url(#SVGID_11_)" d="M53.559,75.813v-8.005c-0.281-0.139-0.566-0.273-0.86-0.4c-1.954-0.847-4.002-1.258-6.259-1.258
				c-2.256,0-4.303,0.411-6.259,1.258c-2.023,0.876-3.729,2.024-5.215,3.508c-0.663,0.664-1.254,1.376-1.79,2.139v2.758
				L53.559,75.813L53.559,75.813z"/>
			
				<linearGradient id="SVGID_12_" gradientUnits="userSpaceOnUse" x1="498.1514" y1="-168.5361" x2="399.2211" y2="-267.4664" gradientTransform="matrix(1 0 0 -1 -408.96 -146.5996)">
				<stop  offset="0" style="stop-color:#F2F2F2"/>
				<stop  offset="1" style="stop-color:#C9D9DE"/>
			</linearGradient>
			<path fill="url(#SVGID_12_)" d="M70.96,51.442c0.039,0.031,0.079,0.06,0.118,0.09l0.01,0.009l0.01,0.008
				c0.602,0.48,1.183,0.973,1.741,1.473l-9.162-17.021h-3.282v9.415c0.492,0.188,0.981,0.386,1.466,0.594
				C65.151,47.436,68.211,49.264,70.96,51.442z"/>
			
				<linearGradient id="SVGID_13_" gradientUnits="userSpaceOnUse" x1="510.5225" y1="-180.8389" x2="411.5061" y2="-279.8552" gradientTransform="matrix(1 0 0 -1 -408.96 -146.5996)">
				<stop  offset="0" style="stop-color:#F2F2F2"/>
				<stop  offset="1" style="stop-color:#C9D9DE"/>
			</linearGradient>
			<path fill="url(#SVGID_13_)" d="M61.266,75.813c-0.266-0.588-0.555-1.148-0.871-1.684v1.684H61.266z"/>
			
				<linearGradient id="SVGID_14_" gradientUnits="userSpaceOnUse" x1="492.1943" y1="-162.5796" x2="393.2592" y2="-261.5148" gradientTransform="matrix(1 0 0 -1 -408.96 -146.5996)">
				<stop  offset="0" style="stop-color:#F2F2F2"/>
				<stop  offset="1" style="stop-color:#C9D9DE"/>
			</linearGradient>
			<path fill="url(#SVGID_14_)" d="M6.935,82.65H0v20.382h12.746c-1.001-1.639-1.896-3.359-2.674-5.159
				C8.015,93.121,6.96,87.999,6.935,82.65z"/>
			
				<linearGradient id="SVGID_15_" gradientUnits="userSpaceOnUse" x1="509.1895" y1="-179.5732" x2="410.2534" y2="-278.5093" gradientTransform="matrix(1 0 0 -1 -408.96 -146.5996)">
				<stop  offset="0" style="stop-color:#F2F2F2"/>
				<stop  offset="1" style="stop-color:#C9D9DE"/>
			</linearGradient>
			<path fill="url(#SVGID_15_)" d="M33.176,82.65v9.129c0.536,0.76,1.128,1.471,1.79,2.134c1.485,1.485,3.191,2.633,5.215,3.509
				c1.956,0.847,4.004,1.258,6.259,1.258c2.256,0,4.303-0.411,6.26-1.258c0.294-0.127,0.579-0.263,0.859-0.401V82.65H33.176z"/>
			
				<linearGradient id="SVGID_16_" gradientUnits="userSpaceOnUse" x1="444.8232" y1="-267.1294" x2="444.8167" y2="-267.136" gradientTransform="matrix(1 0 0 -1 -408.96 -146.5996)">
				<stop  offset="0" style="stop-color:#F2F2F2"/>
				<stop  offset="1" style="stop-color:#C9D9DE"/>
			</linearGradient>
			<path fill="url(#SVGID_16_)" d="M35.87,120.536L35.87,120.536c-0.006-0.002-0.013-0.004-0.019-0.007
				C35.858,120.532,35.864,120.534,35.87,120.536z"/>
			
				<linearGradient id="SVGID_17_" gradientUnits="userSpaceOnUse" x1="527" y1="-197.3896" x2="428.0672" y2="-296.3224" gradientTransform="matrix(1 0 0 -1 -408.96 -146.5996)">
				<stop  offset="0" style="stop-color:#F2F2F2"/>
				<stop  offset="1" style="stop-color:#C9D9DE"/>
			</linearGradient>
			<path fill="url(#SVGID_17_)" d="M36.865,120.798L36.865,120.798c-0.002,0-0.005,0-0.007-0.001c-0.001,0-0.001,0-0.002,0
				l-0.015-0.003l-0.013-0.005l-0.054-0.013c-0.046-0.012-0.096-0.025-0.144-0.038c-0.047-0.012-0.095-0.023-0.142-0.036
				c-0.005-0.001-0.011-0.003-0.016-0.004c-0.123-0.032-0.251-0.065-0.386-0.104c-0.024-0.005-0.048-0.012-0.073-0.018l-0.216-0.059
				l-0.105-0.036c-0.846-0.239-1.688-0.515-2.52-0.817v11.601h20.382v-9.939c-2.318,0.42-4.694,0.634-7.118,0.634
				C43.161,121.959,39.94,121.568,36.865,120.798z"/>
			
				<linearGradient id="SVGID_18_" gradientUnits="userSpaceOnUse" x1="538.5898" y1="-208.9741" x2="439.6524" y2="-307.9115" gradientTransform="matrix(1 0 0 -1 -408.96 -146.5996)">
				<stop  offset="0" style="stop-color:#F2F2F2"/>
				<stop  offset="1" style="stop-color:#C9D9DE"/>
			</linearGradient>
			<path fill="url(#SVGID_18_)" d="M60.457,119.39c-0.02,0.009-0.042,0.016-0.063,0.022v11.854h12.54l-10.068-9.583L60.457,119.39z"
				/>
			
				<linearGradient id="SVGID_19_" gradientUnits="userSpaceOnUse" x1="549.416" y1="-219.7964" x2="450.4769" y2="-318.7355" gradientTransform="matrix(1 0 0 -1 -408.96 -146.5996)">
				<stop  offset="0" style="stop-color:#F2F2F2"/>
				<stop  offset="1" style="stop-color:#C9D9DE"/>
			</linearGradient>
			<polygon fill="url(#SVGID_19_)" points="104,110.905 103.442,109.868 95.306,109.868 104,118.133 			"/>
			
				<linearGradient id="SVGID_20_" gradientUnits="userSpaceOnUse" x1="509.458" y1="-179.8374" x2="410.52" y2="-278.7754" gradientTransform="matrix(1 0 0 -1 -408.96 -146.5996)">
				<stop  offset="0" style="stop-color:#F2F2F2"/>
				<stop  offset="1" style="stop-color:#C9D9DE"/>
			</linearGradient>
			<path fill="url(#SVGID_20_)" d="M26.015,116.241l-0.007-0.005l-0.014-0.008l-0.013-0.008l-0.011-0.006l-0.009-0.006l-0.01-0.006
				c-0.041-0.024-0.08-0.05-0.121-0.074c0-0.001-0.001-0.001-0.002-0.001c-0.006-0.005-0.012-0.008-0.017-0.012
				c-0.168-0.103-0.327-0.202-0.48-0.302c-0.015-0.009-0.028-0.017-0.043-0.026c-0.021-0.013-0.041-0.026-0.061-0.039
				c-0.028-0.019-0.057-0.036-0.083-0.054c-0.135-0.086-0.267-0.173-0.396-0.26c-0.02-0.013-0.044-0.027-0.063-0.041l0,0
				c0-0.001-0.002-0.002-0.003-0.003c-0.002-0.001-0.003-0.002-0.005-0.003l-0.009-0.005l-0.009-0.006
				c-0.001-0.002-0.002-0.002-0.003-0.002c-0.002-0.003-0.004-0.003-0.006-0.004v-0.002c-0.012-0.007-0.022-0.015-0.032-0.021
				c-2.209-1.463-4.261-3.137-6.103-4.979c-0.166-0.165-0.328-0.333-0.491-0.503H0v21.397h26.34v-14.828
				c-0.068-0.042-0.139-0.082-0.206-0.125L26.015,116.241z"/>
			
				<linearGradient id="SVGID_21_" gradientUnits="userSpaceOnUse" x1="535.4365" y1="-205.8179" x2="436.5001" y2="-304.7542" gradientTransform="matrix(1 0 0 -1 -408.96 -146.5996)">
				<stop  offset="0" style="stop-color:#F2F2F2"/>
				<stop  offset="1" style="stop-color:#C9D9DE"/>
			</linearGradient>
			<path fill="url(#SVGID_21_)" d="M82.771,97.952l1.929,1.833l3.414,3.247h11.647L88.79,82.649h-2.845
				c-0.025,5.349-1.08,10.47-3.137,15.222C82.796,97.899,82.782,97.927,82.771,97.952z"/>
			
				<linearGradient id="SVGID_22_" gradientUnits="userSpaceOnUse" x1="516.123" y1="-186.5122" x2="417.1931" y2="-285.4422" gradientTransform="matrix(1 0 0 -1 -408.96 -146.5996)">
				<stop  offset="0" style="stop-color:#F2F2F2"/>
				<stop  offset="1" style="stop-color:#C9D9DE"/>
			</linearGradient>
			<path fill="url(#SVGID_22_)" d="M62.674,82.65h-2.279v8.061c0.378-0.634,0.72-1.302,1.026-2.011
				C62.241,86.806,62.648,84.823,62.674,82.65z"/>
			
				<linearGradient id="SVGID_23_" gradientUnits="userSpaceOnUse" x1="472.4131" y1="-142.7939" x2="373.4752" y2="-241.7319" gradientTransform="matrix(1 0 0 -1 -408.96 -146.5996)">
				<stop  offset="0" style="stop-color:#F2F2F2"/>
				<stop  offset="1" style="stop-color:#C9D9DE"/>
			</linearGradient>
			<path fill="url(#SVGID_23_)" d="M18.519,54.457c2.334-2.335,4.954-4.36,7.821-6.059V36.001H0v39.813h7.48
				c0.51-3.04,1.372-5.985,2.585-8.806C12.121,62.232,14.965,58.01,18.519,54.457z"/>
			
				<linearGradient id="SVGID_24_" gradientUnits="userSpaceOnUse" x1="537.5127" y1="-207.8911" x2="438.5705" y2="-306.8332" gradientTransform="matrix(1 0 0 -1 -408.96 -146.5996)">
				<stop  offset="0" style="stop-color:#F2F2F2"/>
				<stop  offset="1" style="stop-color:#C9D9DE"/>
			</linearGradient>
			<polygon fill="url(#SVGID_24_)" points="104,82.65 96.556,82.65 104,96.481 			"/>
			
				<linearGradient id="SVGID_25_" gradientUnits="userSpaceOnUse" x1="514.4023" y1="-184.7852" x2="415.4638" y2="-283.7237" gradientTransform="matrix(1 0 0 -1 -408.96 -146.5996)">
				<stop  offset="0" style="stop-color:#F2F2F2"/>
				<stop  offset="1" style="stop-color:#C9D9DE"/>
			</linearGradient>
			<polygon fill="url(#SVGID_25_)" points="104,75.813 104,36.001 71.442,36.001 92.873,75.813 			"/>
		</g>
	</g>
</g>
</svg>
