<?xml version="1.0" encoding="utf-8"?>
<!-- Generator: Adobe Illustrator 15.0.2, SVG Export Plug-In . SVG Version: 6.00 Build 0)  -->
<!DOCTYPE svg PUBLIC "-//W3C//DTD SVG 1.1//EN" "http://www.w3.org/Graphics/SVG/1.1/DTD/svg11.dtd">
<svg version="1.1" id="Calque_1" xmlns="http://www.w3.org/2000/svg" xmlns:xlink="http://www.w3.org/1999/xlink" x="0px" y="0px"
	 width="320.25px" height="24.25px" viewBox="0 0 320.25 24.25" enable-background="new 0 0 320.25 24.25" xml:space="preserve">
<g id="Effet_NoPatch" display="none">
</g>
<g>
	
		<linearGradient id="SVGID_1_" gradientUnits="userSpaceOnUse" x1="655.1624" y1="-758.0205" x2="655.1624" y2="-735.0225" gradientTransform="matrix(1 0 0 -1 -615.1602 -734.2705)">
		<stop  offset="0" style="stop-color:#EEEBE8"/>
		<stop  offset="1" style="stop-color:#E8C6B0"/>
	</linearGradient>
	<path fill="url(#SVGID_1_)" d="M75.965,23.75H4.035c-1.398,0-2.534-1.137-2.534-2.534V3.283c0-1.396,1.136-2.531,2.534-2.531
		h71.931c1.396,0,2.534,1.136,2.534,2.531v17.933C78.5,22.613,77.363,23.75,75.965,23.75L75.965,23.75z"/>
	<path fill="#2AEDFF" d="M75.964,0.25C77.642,0.25,79,1.607,79,3.284v17.931c0,1.678-1.357,3.035-3.035,3.035H4.035
		C2.358,24.25,1,22.893,1,21.215V3.284C1,1.607,2.359,0.25,4.035,0.25H75.964 M75.964,1.25H4.035C2.913,1.25,2,2.162,2,3.284v17.931
		c0,1.122,0.913,2.035,2.035,2.035h71.93c1.122,0,2.035-0.913,2.035-2.035V3.284C78,2.162,77.086,1.25,75.964,1.25L75.964,1.25z"/>
</g>
<g>
	
		<linearGradient id="SVGID_2_" gradientUnits="userSpaceOnUse" x1="491.4612" y1="42.7744" x2="491.4612" y2="65.7725" gradientTransform="matrix(-1 0 0 1 611.4614 -42.1494)">
		<stop  offset="0" style="stop-color:#EEEBE8"/>
		<stop  offset="1" style="stop-color:#E8C6B0"/>
	</linearGradient>
	<path fill="url(#SVGID_2_)" d="M84.034,0.625h71.931c1.397,0,2.534,1.137,2.534,2.534v17.933c0,1.396-1.137,2.531-2.534,2.531
		H84.034c-1.397,0-2.534-1.137-2.534-2.531V3.159C81.5,1.762,82.637,0.625,84.034,0.625L84.034,0.625z"/>
	<path fill="#2AEDFF" d="M84.035,24.125c-1.679,0-3.035-1.357-3.035-3.034V3.16c0-1.678,1.356-3.035,3.035-3.035h71.93
		c1.676,0,3.035,1.357,3.035,3.035v17.931c0,1.679-1.359,3.034-3.035,3.034H84.035 M84.035,23.125h71.93
		c1.122,0,2.035-0.912,2.035-2.034V3.16c0-1.122-0.913-2.035-2.035-2.035h-71.93C82.913,1.125,82,2.038,82,3.16v17.931
		C82,22.213,82.913,23.125,84.035,23.125L84.035,23.125z"/>
</g>
<g>
	
		<linearGradient id="SVGID_3_" gradientUnits="userSpaceOnUse" x1="541.4612" y1="58.6475" x2="541.4612" y2="81.6455" gradientTransform="matrix(-1 0 0 1 741.7095 -57.8975)">
		<stop  offset="0" style="stop-color:#EEEBE8"/>
		<stop  offset="1" style="stop-color:#E8C6B0"/>
	</linearGradient>
	<path fill="url(#SVGID_3_)" d="M164.283,0.75h71.931c1.396,0,2.534,1.138,2.534,2.534v17.933c0,1.396-1.138,2.531-2.534,2.531
		h-71.931c-1.397,0-2.534-1.138-2.534-2.531V3.284C161.749,1.888,162.886,0.75,164.283,0.75L164.283,0.75z"/>
	<path fill="#2AEDFF" d="M164.284,24.25c-1.679,0-3.035-1.356-3.035-3.034V3.285c0-1.679,1.356-3.035,3.035-3.035h71.93
		c1.677,0,3.035,1.356,3.035,3.035v17.931c0,1.678-1.358,3.034-3.035,3.034H164.284 M164.284,23.25h71.93
		c1.122,0,2.035-0.912,2.035-2.034V3.285c0-1.122-0.913-2.035-2.035-2.035h-71.93c-1.122,0-2.035,0.913-2.035,2.035v17.931
		C162.249,22.338,163.162,23.25,164.284,23.25L164.284,23.25z"/>
</g>
<g opacity="0.4">
	
		<linearGradient id="SVGID_4_" gradientUnits="userSpaceOnUse" x1="895.4124" y1="-758.0215" x2="895.4124" y2="-735.0234" gradientTransform="matrix(1 0 0 -1 -615.1602 -734.2705)">
		<stop  offset="0" style="stop-color:#EEEBE8"/>
		<stop  offset="1" style="stop-color:#E8C6B0"/>
	</linearGradient>
	<path fill="url(#SVGID_4_)" d="M316.216,23.751h-71.931c-1.398,0-2.534-1.137-2.534-2.534V3.284c0-1.396,1.136-2.531,2.534-2.531
		h71.931c1.396,0,2.534,1.136,2.534,2.531v17.933C318.75,22.614,317.613,23.751,316.216,23.751L316.216,23.751z"/>
	<path fill="#2AEDFF" d="M316.215,0.251c1.678,0,3.035,1.357,3.035,3.034v17.931c0,1.679-1.357,3.035-3.035,3.035h-71.93
		c-1.677,0-3.035-1.356-3.035-3.035V3.285c0-1.677,1.358-3.034,3.035-3.034H316.215 M316.215,1.251h-71.93
		c-1.122,0-2.035,0.912-2.035,2.034v17.931c0,1.122,0.913,2.035,2.035,2.035h71.93c1.122,0,2.035-0.913,2.035-2.035V3.285
		C318.25,2.163,317.337,1.251,316.215,1.251L316.215,1.251z"/>
</g>
</svg>
